<?xml version="1.0" encoding="UTF-8" standalone="no"?>
<!-- Creator: CorelDRAW -->

<svg
   xmlns:dc="http://purl.org/dc/elements/1.1/"
   xmlns:cc="http://creativecommons.org/ns#"
   xmlns:rdf="http://www.w3.org/1999/02/22-rdf-syntax-ns#"
   xmlns:svg="http://www.w3.org/2000/svg"
   xmlns="http://www.w3.org/2000/svg"
   xmlns:sodipodi="http://sodipodi.sourceforge.net/DTD/sodipodi-0.dtd"
   xmlns:inkscape="http://www.inkscape.org/namespaces/inkscape"
   xml:space="preserve"
   width="210mm"
   height="210mm"
   style="shape-rendering:geometricPrecision; text-rendering:geometricPrecision; image-rendering:optimizeQuality; fill-rule:evenodd; clip-rule:evenodd"
   viewBox="0 0 210 210"
   version="1.1"
   id="svg3794"
   sodipodi:docname="enhanced-body-inverse.svg"
   inkscape:version="0.92.3 (2405546, 2018-03-11)"><metadata
   id="metadata3798"><rdf:RDF><cc:Work
       rdf:about=""><dc:format>image/svg+xml</dc:format><dc:type
         rdf:resource="http://purl.org/dc/dcmitype/StillImage" /><dc:title></dc:title></cc:Work></rdf:RDF></metadata><sodipodi:namedview
   pagecolor="#ffffff"
   bordercolor="#666666"
   borderopacity="1"
   objecttolerance="10"
   gridtolerance="10"
   guidetolerance="10"
   inkscape:pageopacity="0"
   inkscape:pageshadow="2"
   inkscape:window-width="1859"
   inkscape:window-height="1043"
   id="namedview3796"
   showgrid="false"
   showguides="false"
   inkscape:zoom="0.38174998"
   inkscape:cx="859.0505"
   inkscape:cy="610.0992"
   inkscape:window-x="1981"
   inkscape:window-y="0"
   inkscape:window-maximized="1"
   inkscape:current-layer="layer1" />
 <defs
   id="defs3787">
  <style
   type="text/css"
   id="style3785">
   <![CDATA[
    .fil0 {fill:#156698}
   ]]>
  </style>
 
  
  
 
   
   
  </defs>
 <g
   inkscape:groupmode="layer"
   id="layer2"
   inkscape:label="Background"
   style="display:inline"><rect
     style="fill:#714787;fill-opacity:1;stroke-width:0.26458332"
     id="rect4662"
     width="212.69545"
     height="212.69545"
     x="0"
     y="-0.73512226" /></g>
<g
   inkscape:groupmode="layer"
   id="layer1"
   inkscape:label="icon"
   style="display:inline"><g
     style="clip-rule:evenodd;fill:#ffffff;fill-rule:evenodd;image-rendering:optimizeQuality;shape-rendering:geometricPrecision;text-rendering:geometricPrecision"
     id="g4656"
     transform="matrix(0.89956092,0,0,0.89956092,10.610158,10.523816)"><path
       style="fill:#ffffff;fill-opacity:1"
       inkscape:connector-curvature="0"
       d="m 134.99155,80.657242 c 0,1.6194 0.4883,3.1646 2.1097,3.1646 h 9.4939 v 10.5486 c 0,1.2154 0.3668,1.5823 1.5822,1.5823 h 3.692 c 1.2153,0 1.5824,-0.3669 1.5824,-1.5823 v -10.5486 h 9.4938 c 1.2345,0 2.1098,-0.8752 2.1098,-2.1099 v -3.1645 c 0,-1.2153 -0.3671,-1.5824 -1.5825,-1.5824 h -10.0211 v -10.5486 c 0,-1.2153 -0.3671,-1.5822 -1.5824,-1.5822 h -3.692 c -1.2154,0 -1.5822,0.3669 -1.5822,1.5822 v 10.5486 h -9.4939 c -1.6214,0 -2.1097,1.5452 -2.1097,3.1647 z"
       class="fil0"
       id="_61375096" /><path
       sodipodi:nodetypes="cssssssccssccccssssscccccscscscccccsscscsccccs"
       inkscape:connector-curvature="0"
       id="_60382664"
       transform="scale(0.26458333)"
       d="M 354.85352,27.175781 C 252.54586,51.233231 189.65745,75.708172 128.67969,143.41992 79.906017,197.5798 26.484375,280.76726 26.484375,382.10547 v 11.96094 c 0,113.06494 48.698981,200.49323 104.113285,258.69531 48.25285,50.68044 151.02167,112.08594 248.72851,112.08594 h 35.88086 c 97.68832,0 195.31522,-54.75361 244.70117,-104.1543 31.61235,-31.62217 52.37353,-57.45087 73.58008,-99.84961 15.25266,-30.49474 38.54883,-91.24552 38.54883,-134.88281 V 366.1582 c 0,-87.40875 -62.13741,-184.72845 -107.15234,-229.74414 C 631.64533,103.17501 608.23337,91.059894 567.91602,65.933594 546.34587,52.490948 471.51001,29.263672 437.13672,29.263672 l -12,67.769531 c 147.264,12.258147 277.1289,136.998497 277.1289,295.039067 v 7.97461 c 0,162.72491 -138.93769,295.03125 -303.00585,295.03124 -156.96681,0 -301.011723,-130.49758 -301.011723,-283.07031 v -33.88867 c 0,-62.17323 32.939343,-126.83898 60.349613,-162.91797 21.2905,-28.02408 70.33446,-73.48308 110.92773,-90.80469 -0.33498,1.68849 -0.70314,3.45152 -1.10937,5.29297 l -87.6875,397.48633 c -2.81952,12.78094 8.09528,28.3304 32.74609,46.64844 22.41129,15.46375 43.87435,25.93728 64.38867,31.41992 57.28527,15.31 106.92093,3.98806 148.9043,-33.9668 31.89252,-29.37299 52.72568,-66.21226 62.5,-110.51953 9.96228,-45.15933 8.45128,-86.61937 -4.5332,-124.37695 -14.84808,-42.31599 -42.01376,-68.74929 -81.49415,-79.30078 -23.22375,-6.20676 -46.92382,-3.74392 -71.10351,7.38867 -19.17013,8.86224 -31.96095,18.5277 -38.36914,28.99609 L 341.20117,78.451172 c 2.35357,-14.543525 6.84501,-28.727641 13.65235,-51.273438 z M 343.66797,295.80469 c 7.60708,-0.1099 15.1847,0.84413 22.73242,2.86133 29.80382,7.96533 49.11672,30.04463 57.9375,66.23828 7.53223,30.88662 6.78612,66.77871 -2.23633,107.67773 -7.80065,35.36061 -19.70407,63.30851 -35.71094,83.84375 -21.94513,28.87348 -50.52925,38.60304 -85.75195,29.18945 -13.16013,-3.51716 -26.09613,-9.9055 -38.80859,-19.16796 -16.20716,-12.00105 -22.99483,-23.96761 -20.36328,-35.89649 l 42.57422,-192.99219 c 4.32325,-19.59744 16.56232,-32.3421 36.71679,-38.23437 7.66644,-2.237 15.30308,-3.40963 22.91016,-3.51953 z"
       style="fill:#ffffff;fill-opacity:1;stroke-width:3.77952766" /></g></g></svg>